<svg xmlns="http://www.w3.org/2000/svg" viewBox="0 0 600 600" width="600" height="600"><g fill="none" stroke="#F4EFE4" stroke-width="10" stroke-linecap="round" stroke-linejoin="round"><path d="M 592.00 300.00 L 549.81 438.47 L 441.36 526.22 L 312.36 535.91 L 214.35 475.61 L 180.40 383.74 L 210.26 309.43 L 271.90 288.07 L 318.79 324.05 L 314.12 389.12 L 250.07 437.20 L 152.54 428.18 L 68.93 349.12 L 44.90 222.01 L 101.59 94.54 L 224.42 17.95 L 369.10 22.87 L 481.93 104.91 L 524.67 227.00 L 491.80 337.28 L 411.84 393.85 L 332.34 384.24 L 295.75 330.23 L 318.37 275.62 L 382.43 263.30 L 445.44 312.72 L 461.98 409.26 L 407.25 510.49 L 290.69 566.59 L 152.90 544.82 L 47.12 446.00 L 14.42 304.98 L 64.47 174.77 L 171.34 101.88 L 286.37 105.09 L 361.70 167.68 L 373.00 246.96 L 330.29 296.28 L 271.70 288.57 L 243.21 229.88 L 274.65 156.22 L 363.61 115.26 L 475.56 141.93 L 559.92 239.99 L 574.55 378.73 L 506.48 506.48 L 378.73 574.55 L 239.99 559.92 L 141.93 475.56 L 115.26 363.61 L 156.22 274.65 L 229.88 243.21 L 288.57 271.70 L 296.28 330.29 L 246.96 373.00 L 167.68 361.70 L 105.09 286.37 L 101.88 171.34 L 174.77 64.47 L 304.98 14.42 L 446.00 47.12 L 544.82 152.90 L 566.59 290.69 L 510.49 407.25 L 409.26 461.98 L 312.72 445.44 L 263.30 382.43 L 275.62 318.37 L 330.23 295.75 L 384.24 332.34 L 393.85 411.84 L 337.28 491.80 L 227.00 524.67 L 104.91 481.93 L 22.87 369.10 L 17.95 224.42 L 94.54 101.59 L 222.01 44.90 L 349.12 68.93 L 428.18 152.54 L 437.20 250.07 L 389.12 314.12 L 324.05 318.79 L 288.07 271.90 L 309.43 210.26 L 383.74 180.40 L 475.61 214.35 L 535.91 312.36 L 526.22 441.36 L 438.47 549.81 L 300.00 592.00 L 161.53 549.81 L 73.78 441.36 L 64.09 312.36 L 124.39 214.35 L 216.26 180.40 L 290.57 210.26 L 311.93 271.90 L 275.95 318.79 L 210.88 314.12 L 162.80 250.07 L 171.82 152.54 L 250.88 68.93 L 377.99 44.90 L 505.46 101.59 L 582.05 224.42 L 577.13 369.10 L 495.09 481.93 L 373.00 524.67 L 262.72 491.80 L 206.15 411.84 L 215.76 332.34 L 269.77 295.75 L 324.38 318.37 L 336.70 382.43 L 287.28 445.44 L 190.74 461.98 L 89.51 407.25 L 33.41 290.69 L 55.18 152.90 L 154.00 47.12 L 295.02 14.42 L 425.23 64.47 L 498.12 171.34 L 494.91 286.37 L 432.32 361.70 L 353.04 373.00 L 303.72 330.29 L 311.43 271.70 L 370.12 243.21 L 443.78 274.65 L 484.74 363.61 L 458.07 475.56 L 360.01 559.92 L 221.27 574.55 L 93.52 506.48 L 25.45 378.73 L 40.08 239.99 L 124.44 141.93 L 236.39 115.26 L 325.35 156.22 L 356.79 229.88 L 328.30 288.57 L 269.71 296.28 L 227.00 246.96 L 238.30 167.68 L 313.63 105.09 L 428.66 101.88 L 535.53 174.77 L 585.58 304.98 L 552.88 446.00 L 447.10 544.82 L 309.31 566.59 L 192.75 510.49 L 138.02 409.26 L 154.56 312.72 L 217.57 263.30 L 281.63 275.62 L 304.25 330.23 L 267.66 384.24 L 188.16 393.85 L 108.20 337.28 L 75.33 227.00 L 118.07 104.91 L 230.90 22.87 L 375.58 17.95 L 498.41 94.54 L 555.10 222.01 L 531.07 349.12 L 447.46 428.18 L 349.93 437.20 L 285.88 389.12 L 281.21 324.05 L 328.10 288.07 L 389.74 309.43 L 419.60 383.74 L 385.65 475.61 L 287.64 535.91 L 158.64 526.22 L 50.19 438.47 L 8.00 300.00 L 50.19 161.53 L 158.64 73.78 L 287.64 64.09 L 385.65 124.39 L 419.60 216.26 L 389.74 290.57 L 328.10 311.93 L 281.21 275.95 L 285.88 210.88 L 349.93 162.80 L 447.46 171.82 L 531.07 250.88 L 555.10 377.99 L 498.41 505.46 L 375.58 582.05 L 230.90 577.13 L 118.07 495.09 L 75.33 373.00 L 108.20 262.72 L 188.16 206.15 L 267.66 215.76 L 304.25 269.77 L 281.63 324.38 L 217.57 336.70 L 154.56 287.28 L 138.02 190.74 L 192.75 89.51 L 309.31 33.41 L 447.10 55.18 L 552.88 154.00 L 585.58 295.02 L 535.53 425.23 L 428.66 498.12 L 313.63 494.91 L 238.30 432.32 L 227.00 353.04 L 269.71 303.72 L 328.30 311.43 L 356.79 370.12 L 325.35 443.78 L 236.39 484.74 L 124.44 458.07 L 40.08 360.01 L 25.45 221.27 L 93.52 93.52 L 221.27 25.45 L 360.01 40.08 L 458.07 124.44 L 484.74 236.39 L 443.78 325.35 L 370.12 356.79 L 311.43 328.30 L 303.72 269.71 L 353.04 227.00 L 432.32 238.30 L 494.91 313.63 L 498.12 428.66 L 425.23 535.53 L 295.02 585.58 L 154.00 552.88 L 55.18 447.10 L 33.41 309.31 L 89.51 192.75 L 190.74 138.02 L 287.28 154.56 L 336.70 217.57 L 324.38 281.63 L 269.77 304.25 L 215.76 267.66 L 206.15 188.16 L 262.72 108.20 L 373.00 75.33 L 495.09 118.07 L 577.13 230.90 L 582.05 375.58 L 505.46 498.41 L 377.99 555.10 L 250.88 531.07 L 171.82 447.46 L 162.80 349.93 L 210.88 285.88 L 275.95 281.21 L 311.93 328.10 L 290.57 389.74 L 216.26 419.60 L 124.39 385.65 L 64.09 287.64 L 73.78 158.64 L 161.53 50.19 L 300.00 8.00 L 438.47 50.19 L 526.22 158.64 L 535.91 287.64 L 475.61 385.65 L 383.74 419.60 L 309.43 389.74 L 288.07 328.10 L 324.05 281.21 L 389.12 285.88 L 437.20 349.93 L 428.18 447.46 L 349.12 531.07 L 222.01 555.10 L 94.54 498.41 L 17.95 375.58 L 22.87 230.90 L 104.91 118.07 L 227.00 75.33 L 337.28 108.20 L 393.85 188.16 L 384.24 267.66 L 330.23 304.25 L 275.62 281.63 L 263.30 217.57 L 312.72 154.56 L 409.26 138.02 L 510.49 192.75 L 566.59 309.31 L 544.82 447.10 L 446.00 552.88 L 304.98 585.58 L 174.77 535.53 L 101.88 428.66 L 105.09 313.63 L 167.68 238.30 L 246.96 227.00 L 296.28 269.71 L 288.57 328.30 L 229.88 356.79 L 156.22 325.35 L 115.26 236.39 L 141.93 124.44 L 239.99 40.08 L 378.73 25.45 L 506.48 93.52 L 574.55 221.27 L 559.92 360.01 L 475.56 458.07 L 363.61 484.74 L 274.65 443.78 L 243.21 370.12 L 271.70 311.43 L 330.29 303.72 L 373.00 353.04 L 361.70 432.32 L 286.37 494.91 L 171.34 498.12 L 64.47 425.23 L 14.42 295.02 L 47.12 154.00 L 152.90 55.18 L 290.69 33.41 L 407.25 89.51 L 461.98 190.74 L 445.44 287.28 L 382.43 336.70 L 318.37 324.38 L 295.75 269.77 L 332.34 215.76 L 411.84 206.15 L 491.80 262.72 L 524.67 373.00 L 481.93 495.09 L 369.10 577.13 L 224.42 582.05 L 101.59 505.46 L 44.90 377.99 L 68.93 250.88 L 152.54 171.82 L 250.07 162.80 L 314.12 210.88 L 318.79 275.95 L 271.90 311.93 L 210.26 290.57 L 180.40 216.26 L 214.35 124.39 L 312.36 64.09 L 441.36 73.78 L 549.81 161.53 L 592.00 300.00"/></g><circle cx="300.0" cy="300.0" r="0" fill="none" stroke="#F4EFE4" stroke-width="8"/><circle cx="300.0" cy="300.0" r="12" fill="#F4EFE4"/></svg>